<?xml version="1.0" standalone="no"?><!DOCTYPE svg PUBLIC "-//W3C//DTD SVG 1.1//EN" "http://www.w3.org/Graphics/SVG/1.1/DTD/svg11.dtd"><svg class="icon" width="128px" height="128.00px" viewBox="0 0 1024 1024" version="1.1" xmlns="http://www.w3.org/2000/svg"><path d="M651.065224 0.108424H147.708988C113.579671 0.108424 87.985694 25.708424 87.985694 59.831718v904.336564c0 34.129318 25.6 59.723294 59.723294 59.723294h725.172706c34.129318 0 59.723294-25.6 59.723294-59.723294V281.648188L651.065224 0.108424z" fill="var(--primary)" /><path d="M317.590588 485.496471c25.4976 0 46.381176 6.625882 62.644706 19.877647 15.4624 12.450635 24.895247 29.714071 28.310588 51.802353h-34.334117c-3.614118-14.052894-10.3424-24.395294-20.178824-31.021177-9.438871-6.427106-21.787106-9.637647-37.044706-9.637647-22.690635 0-39.652894 7.728188-50.898823 23.190588-10.438776 13.655341-15.661176 32.930635-15.661177 57.825883 0 25.298824 5.12 44.772894 15.36 58.428235 11.245929 14.655247 28.611765 21.985882 52.10353 21.985882 15.2576 0 27.810635-3.716518 37.647059-11.143529 10.24-8.029365 17.468235-20.281224 21.684705-36.74353h34.334118c-4.818824 25.298824-16.064753 44.977694-33.731765 59.030589-16.462306 13.251765-36.339953 19.877647-59.632941 19.877647-35.7376 0-62.445929-11.245929-80.112941-33.731765-15.2576-19.076518-22.889412-44.977694-22.889412-77.703529 0-32.328282 7.932988-58.325835 23.792941-78.004706 17.871812-22.690635 44.074165-34.032941 78.607059-34.032941z m188.235294 4.21647h40.056471l82.221176 215.04h-37.647058l-19.576471-53.910588h-90.051765l-19.57647 53.910588h-37.647059l82.221176-215.04z m-14.45647 132.216471h68.969412l-33.731765-94.268236h-1.204706l-34.032941 94.268236z m157.81647-132.216471h78.607059c34.737694 0 61.138824 9.637647 79.209412 28.912941 17.269459 18.269365 25.901176 44.471718 25.901176 78.607059 0 33.930541-8.631718 60.132894-25.901176 78.607059-18.070588 19.275294-44.471718 28.912941-79.209412 28.912941h-78.607059V489.712941z m35.237647 30.117647V674.635294h36.74353c26.702306 0 46.278776-6.222306 58.729412-18.672941 12.047059-12.649412 18.070588-32.225882 18.070588-58.729412 0-27.304659-6.023529-46.983529-18.070588-59.030588-12.245835-12.245835-31.822306-18.371765-58.729412-18.371765h-36.74353z" fill="#FFFFFF" /><path d="M651.065224 221.930918c0 34.123294 25.6 59.717271 59.723294 59.71727h221.81647L651.065224 0.108424v221.822494z" fill="var(--primary)" /></svg>
