<?xml version="1.0" standalone="no"?><!DOCTYPE svg PUBLIC "-//W3C//DTD SVG 1.1//EN" "http://www.w3.org/Graphics/SVG/1.1/DTD/svg11.dtd"><svg t="1624530071963" class="icon" viewBox="0 0 1024 1024" version="1.1" xmlns="http://www.w3.org/2000/svg" p-id="5240" xmlns:xlink="http://www.w3.org/1999/xlink" width="128" height="128"><defs><style type="text/css"></style></defs><path d="M665.6 51.2l204.8 204.8v665.6a51.2 51.2 0 0 1-51.2 51.2H204.8a51.2 51.2 0 0 1-51.2-51.2V102.4a51.2 51.2 0 0 1 51.2-51.2h460.8z" fill="#296EF2" p-id="5241"></path><path d="M665.6 51.2l204.8 204.8h-153.6a51.2 51.2 0 0 1-51.2-51.2V51.2z" fill="#75A4FE" p-id="5242"></path><path d="M217.6 608.6848c0-32.0192 8.7552-56.704 26.272-74.0352 15.232-15.104 34.6112-22.6496 58.1312-22.6496 31.4816 0 54.496 10.1184 69.056 30.3616 8.032 11.3664 12.352 22.7712 12.9408 34.2208h-39.0912c-2.5408-8.7936-5.7984-15.4304-9.7728-19.9104-7.1104-7.9616-17.6448-11.9488-31.6096-11.9488-14.208 0-25.4272 5.6256-33.632 16.864-8.2112 11.2384-12.3136 27.1488-12.3136 47.7184 0 20.576 4.3392 35.9808 13.0112 46.2272 8.672 10.24 19.6928 15.3664 33.0624 15.3664 13.7088 0 24.16-4.3968 31.3536-13.184 3.9744-4.736 7.2768-11.8272 9.9008-21.28h38.7136c-3.392 19.9872-12.0384 36.2496-25.9584 48.7744-13.92 12.5248-31.7568 18.7904-53.504 18.7904-26.9056 0-48.064-8.4608-63.4624-25.3824-15.3984-17.0048-23.0976-40.32-23.0976-69.9328zM472.7872 545.344v51.584h43.584c8.6592 0 15.1488-1.0432 19.4816-3.1232 7.6608-3.648 11.488-10.8608 11.488-21.6256 0-11.6352-3.7056-19.456-11.1168-23.4496-4.16-2.2528-10.4064-3.3856-18.7264-3.3856h-44.7104zM525.4848 512c12.9088 0.256 22.8352 1.9136 29.7856 4.9472a46.6816 46.6816 0 0 1 17.6704 13.4208 59.9488 59.9488 0 0 1 9.4912 16.1472c2.3296 5.9072 3.4944 12.64 3.4944 20.192 0 9.12-2.2016 18.0864-6.6176 26.8992-4.416 8.8128-11.6992 15.04-21.856 18.688 8.4928 3.5648 14.5088 8.6208 18.048 15.1808 3.5392 6.5536 5.312 16.5632 5.312 30.0224v12.896c0 8.768 0.3264 14.72 0.992 17.8432 0.9984 4.9536 3.328 8.6016 6.9952 10.944a4.8192 4.8192 0 0 1-4.8192 4.8192h-37.5168c-1.1648-4.256-1.9968-7.68-2.496-10.2912a98.4768 98.4768 0 0 1-1.6256-16.544l-0.2496-17.8432c-0.1664-12.2432-2.304-20.4096-6.4256-24.4864-4.1216-4.0832-11.84-6.1248-23.168-6.1248h-39.712v56.4928a18.7968 18.7968 0 0 1-37.5872 0V537.6a25.6 25.6 0 0 1 25.6-25.6h64.6848zM670.7456 704h-7.9744a12.7104 12.7104 0 0 1-10.816-19.3856l48.3456-78.4384-45.1968-74.1888A13.152 13.152 0 0 1 666.336 512h8.0832a25.6 25.6 0 0 1 22.56 13.504L723.2 574.3936l27.0528-49.1392A25.6 25.6 0 0 1 772.672 512h7.5136a12.608 12.608 0 0 1 10.72 19.2512L745.472 604.608l48.4992 79.104a13.3184 13.3184 0 0 1-11.3536 20.2816h-8.5824a25.6 25.6 0 0 1-22.4832-13.3568L723.2 638.6112l-30.272 52.5632a25.6 25.6 0 0 1-22.1824 12.8256z" fill="#FFFFFF" p-id="5243"></path></svg>