<?xml version="1.0" standalone="no"?><!DOCTYPE svg PUBLIC "-//W3C//DTD SVG 1.1//EN" "http://www.w3.org/Graphics/SVG/1.1/DTD/svg11.dtd"><svg class="icon" width="128px" height="128.00px" viewBox="0 0 1024 1024" version="1.1" xmlns="http://www.w3.org/2000/svg"><path fill="var(--primary)" d="M592.867556 28.444444a113.777778 113.777778 0 0 1 80.469333 33.336889l189.326222 189.326223A113.777778 113.777778 0 0 1 896 331.576889V881.777778a113.777778 113.777778 0 0 1-113.777778 113.777778H241.777778a113.777778 113.777778 0 0 1-113.777778-113.777778V142.222222a113.777778 113.777778 0 0 1 113.777778-113.777778h351.089778z m14.108444 90.936889a22.755556 22.755556 0 0 0-22.016 23.466667l4.636444 143.445333A56.888889 56.888889 0 0 0 646.456889 341.333333h137.728a22.755556 22.755556 0 0 0 16.071111-38.855111l-176.440889-176.440889a22.755556 22.755556 0 0 0-16.839111-6.656z" /></svg>
