<?xml version="1.0" standalone="no"?><!DOCTYPE svg PUBLIC "-//W3C//DTD SVG 1.1//EN" "http://www.w3.org/Graphics/SVG/1.1/DTD/svg11.dtd"><svg class="icon" width="128px" height="128.00px" viewBox="0 0 1024 1024" version="1.1" xmlns="http://www.w3.org/2000/svg"><path fill="var(--primary)" d="M1002.756506 797.20448c-0.6144-198.28736-0.6144-396.77952 0-595.3536-1.39264-19.456 0-40.96-11.55072-57.83552-16.384-11.59168-37.0688-10.77248-56.03328-11.59168h-334.92992V40.96h-66.1504C362.920346 71.96672 191.666586 101.9904 20.371866 132.54656v800.44032c170.22976 30.5152 340.5824 59.8016 511.30368 91.01312h69.26336v-101.53984h347.05408c18.59584-0.8192 46.57152-1.39264 50.95424-25.23136 6.79936-32.72704 3.80928-66.72384 3.80928-100.02432zM348.256666 711.72096c-18.92352-47.75936-42.02496-93.7984-55.7056-143.7696-15.07328 46.2848-36.78208 90.35776-54.23104 135.82336-24.3712 0-48.86528-1.39264-73.23648-2.4576 28.672-57.79456 56.36096-115.63008 85.93408-172.6464-25.1904-58.85952-52.67456-116.57216-78.56128-175.22688l73.56416-4.25984c16.62976 44.76928 34.65216 88.80128 48.5376 134.7584 15.44192-48.7424 37.64224-94.4128 56.23808-141.35296a3608.9856 3608.9856 0 0 1 75.85792-4.75136 37571.13344 37571.13344 0 0 1-89.98912 187.47392c30.63808 63.93856 62.0544 127.22176 92.40576 191.65184l-80.81408-5.24288z m620.21632 175.47264h-368.2304v-68.608h89.2928v-79.99488h-89.2928v-46.2848h89.2928V612.7616h-89.2928v-45.71136h89.2928v-80.11776h-89.2928v-46.2848h89.2928v-79.4624h-89.2928V314.9824h89.2928V235.35616h-89.2928V166.78912h368.2304V887.1936zM734.222746 235.35616h156.13952V315.392h-156.13952V235.35616z m0 125.82912h156.13952v80.03584h-156.13952V361.18528z m0 377.40544h156.13952v79.99488h-156.13952v-79.99488z m0-251.65824h156.13952v80.11776h-156.13952v-80.11776z m0 125.82912h156.13952v79.99488h-156.13952V612.7616z"  /></svg>
