<?xml version="1.0" standalone="no"?><!DOCTYPE svg PUBLIC "-//W3C//DTD SVG 1.1//EN" "http://www.w3.org/Graphics/SVG/1.1/DTD/svg11.dtd"><svg class="icon" width="128px" height="124.71px" viewBox="0 0 1051 1024" version="1.1" xmlns="http://www.w3.org/2000/svg"><path d="M553.319784 0h67.750054v107.104865c127.695568 0.719568 255.584865-1.273081 383.142054 0.608865 27.509622-2.573838 48.985946 18.708757 46.301405 46.107675 1.992649 222.429405-0.470486 444.997189 1.162379 667.537298-1.162378 23.994811 2.352432 50.674162-11.513081 71.984432-17.380324 12.647784-40.157405 11.014919-60.60973 11.955892-119.448216-0.581189-238.896432-0.359784-358.483027-0.359784V1024h-74.336865c-182.050595-33.127784-364.488649-63.321946-546.649946-95.287351C0 650.904216 0 373.068108 0.083027 95.398054 184.403027 63.68173 368.778378 31.273514 553.319784 0z" fill="var(--primary)" /><path d="M193.72973 525.837838l-110.702703-60.886487v-9.935567L193.72973 387.459459v22.611027l-82.252108 48.985946v0.664217L193.72973 503.365189V525.837838z m166.054054-166.054054l-88.838919 249.081081H249.081081l88.838919-249.081081H359.783784z m193.72973 105.112216L442.810811 525.837838v-22.500324l82.390486-43.284757v-0.913298L442.810811 410.098162V387.459459l110.702703 67.500973v9.935568zM608.864865 138.378378v719.567568h387.459459V138.378378z" fill="#FFFFFF" /><path d="M705.72973 373.621622m-27.675676 0a27.675676 27.675676 0 1 0 55.351351 0 27.675676 27.675676 0 1 0-55.351351 0Z" fill="var(--primary)" /><path d="M705.72973 456.648649m-27.675676 0a27.675676 27.675676 0 1 0 55.351351 0 27.675676 27.675676 0 1 0-55.351351 0Z" fill="var(--primary)" /><path d="M816.432432 373.621622m-27.675675 0a27.675676 27.675676 0 1 0 55.351351 0 27.675676 27.675676 0 1 0-55.351351 0Z" fill="var(--primary)" /><path d="M816.432432 456.648649m-27.675675 0a27.675676 27.675676 0 1 0 55.351351 0 27.675676 27.675676 0 1 0-55.351351 0Z" fill="var(--primary)" /><path d="M899.459459 373.621622m-27.675675 0a27.675676 27.675676 0 1 0 55.351351 0 27.675676 27.675676 0 1 0-55.351351 0Z" fill="var(--primary)" /><path d="M899.459459 456.648649m-27.675675 0a27.675676 27.675676 0 1 0 55.351351 0 27.675676 27.675676 0 1 0-55.351351 0Z" fill="var(--primary)" /><path d="M705.72973 567.351351m-27.675676 0a27.675676 27.675676 0 1 0 55.351351 0 27.675676 27.675676 0 1 0-55.351351 0Z" fill="var(--primary)" /><path d="M816.432432 567.351351m-27.675675 0a27.675676 27.675676 0 1 0 55.351351 0 27.675676 27.675676 0 1 0-55.351351 0Z" fill="var(--primary)" /><path d="M899.459459 567.351351m-27.675675 0a27.675676 27.675676 0 1 0 55.351351 0 27.675676 27.675676 0 1 0-55.351351 0Z" fill="var(--primary)" /></svg>
