<?xml version="1.0" standalone="no"?><!DOCTYPE svg PUBLIC "-//W3C//DTD SVG 1.1//EN" "http://www.w3.org/Graphics/SVG/1.1/DTD/svg11.dtd"><svg class="icon" width="128px" height="128.00px" viewBox="0 0 1024 1024" version="1.1" xmlns="http://www.w3.org/2000/svg"><path d="M145.6 0c-44.8 0-80 36.8-80 81.6V944c0 44.8 35.2 80 80 80h732.8c44.8 0 81.6-35.2 81.6-80V326.4L657.6 0h-512z" fill="var(--primary)" /><path d="M960 326.4v16H755.2s-100.8-20.8-99.2-108.8c0 0 4.8 92.8 97.6 92.8H960z" fill="var(--primary)" /><path d="M657.6 0v233.6c0 25.6 17.6 92.8 97.6 92.8H960L657.6 0z" fill="#FFFFFF" /><path d="M715.632 392.72H308.368c-11.248 0-20.368 9.12-20.368 20.368v325.824c0 11.248 9.12 20.368 20.368 20.368h407.264A20.336 20.336 0 0 0 736 738.912V413.088a20.336 20.336 0 0 0-20.368-20.368z m-20.352 325.824h-366.56V433.456h366.544v285.088z m-198.144-72.704c-86.96-184.08-148.048 52.336-148.048 52.336h325.824c-49.28-328.464-140.72-130.528-177.776-52.336z m-76.768-110.56a30.352 30.352 0 1 0-30.544-30.544 30.56 30.56 0 0 0 30.544 30.544z m0 0" fill="#FFFFFF" /></svg>
