<?xml version="1.0" standalone="no"?><!DOCTYPE svg PUBLIC "-//W3C//DTD SVG 1.1//EN" "http://www.w3.org/Graphics/SVG/1.1/DTD/svg11.dtd"><svg class="icon" width="128px" height="128.00px" viewBox="0 0 1024 1024" version="1.1" xmlns="http://www.w3.org/2000/svg"><path d="M145.622 0c-44.799 0-79.998 36.812-79.998 81.61v860.78c0 44.798 35.2 81.61 79.998 81.61h732.782a81.97 81.97 0 0 0 81.61-81.61V324.804L657.61 0H145.622z" fill="var(--primary)" /><path d="M657.61 0v233.594c0 25.6 17.612 92.798 97.61 92.798h204.794L657.61 0zM317.547 697.275c2.995-11.699 5.888-22.604 8.704-32.69s5.53-19.763 8.166-29.03l7.731-26.93c2.509-8.704 4.89-17.561 7.194-26.547 0.896-3.507 1.433-6.886 1.587-10.137s0.614-6.63 1.433-10.137c0.41-1.204 1.127-2.279 2.176-3.226a18.585 18.585 0 0 1 11.776-4.71c2.79 0 5.12 0.333 6.963 0.973s3.354 1.535 4.506 2.636 1.945 2.432 2.406 3.968 0.665 3.277 0.665 5.171c0 3.405-0.537 6.835-1.638 10.266s-2.457 7.219-4.045 11.314c4.71-3.711 9.523-7.193 14.464-10.495s10.06-6.195 15.308-8.704 10.624-4.506 16.128-5.99 11.213-2.253 17.1-2.253c2.688 0 5.402 0.435 8.09 1.28s5.12 2.176 7.27 3.968 3.942 4.147 5.402 7.04 2.278 6.45 2.483 10.649c4.3-2.893 8.755-5.837 13.337-8.78s9.267-5.607 14.028-7.962 9.498-4.25 14.26-5.709 9.369-2.176 13.874-2.176c6.707 0 12.237 0.87 16.563 2.637s7.808 4.096 10.342 7.04 4.352 6.374 5.401 10.265 1.588 8.039 1.588 12.442c0 4.812-0.461 9.753-1.357 14.847s-1.894 9.958-2.995 14.54c-2.893 11.597-6.144 22.58-9.754 32.921s-7.5 20.813-11.699 31.436l-3.148 7.962c-1.101 2.816-2.381 5.376-3.815 7.73s-3.148 4.302-5.094 5.863-4.224 2.33-6.835 2.33c-5.888 0-9.958-0.999-12.16-2.995s-3.302-4.839-3.302-8.55c0-0.999 0.051-2.151 0.154-3.457s0.358-2.56 0.742-3.737c0.41-1.51 1.306-3.686 2.688-6.528s2.918-5.913 4.582-9.216 3.277-6.63 4.864-9.983 2.79-6.272 3.61-8.781c1.305-4.3 2.816-9.267 4.582-14.924s3.43-11.34 5.017-17.1 2.919-11.213 3.968-16.359 1.588-9.318 1.588-12.518c0-1.51-0.154-2.995-0.461-4.505s-0.82-2.79-1.587-3.891-1.792-1.997-3.15-2.688-3.071-1.05-5.17-1.05c-2.995 0-6.58 0.845-10.726 2.56s-8.448 3.917-12.902 6.681-8.781 5.863-12.98 9.293-7.807 6.886-10.802 10.265c-2.1 2.407-4.096 4.352-5.99 5.863s-3.79 2.662-5.71 3.455c-0.204 0.41-0.69 1.716-1.51 3.968s-1.74 4.941-2.841 8.09-2.253 6.553-3.456 10.188l-3.379 10.189-2.637 7.961c-0.717 2.15-1.05 3.328-1.05 3.533a111.7 111.7 0 0 0-1.791 8.627l-1.357 8.473c-0.41 2.688-0.768 5.581-1.126 8.627s-1.05 5.888-2.1 8.55-2.662 4.813-4.812 6.528-5.171 2.56-9.062 2.56c-1.997 0-3.815-0.512-5.479-1.51s-3.072-2.278-4.275-3.814-2.15-3.303-2.841-5.248-1.101-3.917-1.204-5.914c2.304-9.01 4.557-17.1 6.759-24.293s4.403-14.106 6.604-20.71 4.327-13.235 6.375-19.865 4.07-13.978 6.067-21.965c0.512-1.894 0.896-3.763 1.203-5.632s0.46-3.481 0.46-4.863c0-2.407-0.511-4.378-1.51-5.914s-2.739-2.33-5.248-2.33c-4.096 0-8.166 0.82-12.236 2.484s-8.422 4.224-13.133 7.73-9.932 7.962-15.666 13.338-12.365 11.852-19.865 19.353c-0.794 1.51-1.844 4.3-3.15 8.397s-2.636 8.447-3.967 13.055-2.586 8.883-3.686 12.826-1.792 6.579-2.1 7.884c-1.1 4.199-1.843 7.731-2.252 10.573l-1.05 7.73c-0.205 1.204-0.512 3.175-0.896 5.914s-1.126 5.53-2.176 8.32-2.534 5.273-4.429 7.424-4.403 3.225-7.5 3.225c-4.608 0-8.371-1.254-11.315-3.737a11.878 11.878 0 0 1-4.275-11.392 20.3 20.3 0 0 1 0.486-1.997z m262.06-41.547a119.968 119.968 0 0 1 5.172-16.205 109.079 109.079 0 0 1 34.866-46.027c3.994-3.2 8.218-6.221 12.672-9.063s8.985-5.324 13.568-7.423 9.215-3.764 13.875-5.018 9.215-1.869 13.72-1.869a37.682 37.682 0 0 1 16.052 3.15l8.012-28.211c4.326-15.309 9.677-36.608 15.974-63.896 1.1-2.688 2.662-4.941 4.66-6.759s4.402-2.688 7.193-2.688c1.996 0 3.942 0.18 5.862 0.538s3.61 1.05 5.094 2.1 2.688 2.482 3.61 4.274 1.356 4.147 1.356 7.04l-30.156 120.445c-0.896 3.405-1.74 7.987-2.56 13.721s-1.561 11.827-2.252 18.227-1.255 12.723-1.639 18.97-0.588 11.621-0.588 16.127c0 5.606-0.64 11.161-1.946 16.64-0.589 2.406-1.229 4.428-1.869 6.066s-1.536 2.996-2.636 4.045-2.484 1.792-4.122 2.253-3.737 0.665-6.22 0.665c-2.893 0-5.146-0.307-6.759-0.896s-2.79-1.433-3.61-2.483-1.28-2.252-1.433-3.61-0.256-2.79-0.307-4.351-0.154-3.149-0.307-4.813-0.563-3.225-1.28-4.736a225.874 225.874 0 0 1-4.94 3.15l-6.375 3.967c-2.15 1.331-4.173 2.611-6.067 3.737l-4.199 2.484c-2.303 1.305-4.889 2.662-7.807 4.121s-6.016 2.79-9.37 4.045-6.86 2.278-10.495 3.072-7.322 1.203-11.034 1.203c-4.505 0-8.883-0.742-13.132-2.253a32.434 32.434 0 0 1-19.405-18.687 42.93 42.93 0 0 1-2.995-16.717 55.883 55.883 0 0 1 1.818-14.335z m25.933-1.204c-0.794 2.996-1.203 5.888-1.203 8.704 0 2.893 0.256 5.632 0.742 8.166s1.434 4.787 2.765 6.682 3.149 3.43 5.401 4.582 5.172 1.715 8.781 1.715c1.997 0 4.147-0.358 6.451-1.05s4.582-1.586 6.835-2.636 4.352-2.15 6.298-3.302a151.395 151.395 0 0 0 15.59-10.42c3.25-2.406 6.169-4.991 8.78-7.807s4.864-5.914 6.835-9.37 3.533-7.423 4.736-11.929c0.998-3.993 1.869-7.654 2.637-10.956s1.433-6.528 2.022-9.677 1.152-6.374 1.639-9.676 0.998-6.938 1.51-10.957c-0.512-0.589-1.178-1.177-2.022-1.715s-2.125-0.82-3.815-0.82c-3.993 0-8.396 0.666-13.21 2.023s-9.727 3.277-14.77 5.786-10.01 5.555-14.848 9.139-9.343 7.628-13.49 12.082-7.783 9.319-10.88 14.618-5.376 10.93-6.784 16.818z" fill="#FFFFFF" /></svg>
