<?xml version="1.0" standalone="no"?><!DOCTYPE svg PUBLIC "-//W3C//DTD SVG 1.1//EN" "http://www.w3.org/Graphics/SVG/1.1/DTD/svg11.dtd"><svg class="icon" width="128px" height="128.00px" viewBox="0 0 1024 1024" version="1.1" xmlns="http://www.w3.org/2000/svg"><path d="M159.744 31.744c-11.776 0-24.576 4.608-33.792 14.336-8.704 9.728-14.336 21.504-14.336 33.792v864.256c0 11.776 4.608 24.576 14.336 33.792 9.728 9.728 21.504 14.336 33.792 14.336h704c11.776 0 24.576-4.608 33.792-14.336 9.728-9.728 14.336-21.504 14.336-33.792v-640L640 31.744H159.744z" fill="var(--primary)" /><path d="M911.872 304.128h-224.256c-11.776 0-24.576-4.608-33.792-14.336-9.728-8.704-14.336-21.504-14.336-33.792V31.744l272.384 272.384z" fill="var(--primary)" /><path d="M641.536 395.776L442.88 451.072c-24.064 6.144-43.52 29.184-43.52 51.2v190.464s-14.336-8.704-46.592-4.608c-47.104 6.144-84.992 38.912-84.992 73.216 0 34.304 38.4 55.808 84.992 49.664 47.104-6.144 81.408-37.888 81.408-72.192v-162.816c0-15.36 19.968-22.016 19.968-22.016l175.616-50.176s19.456-6.144 19.456 10.24V645.12s-17.92-9.216-50.176-5.632c-47.104 5.12-85.504 37.376-85.504 71.68s38.4 56.32 85.504 51.2 85.504-37.376 85.504-71.68v-266.24c0.512-22.016-18.944-34.816-43.008-28.672z" fill="#FFFFFF" /></svg>
