<?xml version="1.0" standalone="no"?><!DOCTYPE svg PUBLIC "-//W3C//DTD SVG 1.1//EN" "http://www.w3.org/Graphics/SVG/1.1/DTD/svg11.dtd"><svg class="icon" width="128px" height="125.07px" viewBox="0 0 1048 1024" version="1.1" xmlns="http://www.w3.org/2000/svg"><path d="M551.493 0h67.513v107.163c127.282 0.727 254.683-1.317 381.848 0.59a41.262 41.262 0 0 1 46.076 46.075c1.965 222.42-0.491 444.96 1.179 667.518-1.18 24.05 2.357 50.732-11.436 72.03a107.163 107.163 0 0 1-60.36 11.908c-119.07-0.59-238.14-0.373-357.327-0.373V1024h-74.075C363.497 990.873 181.67 960.634 0.098 928.744q-0.177-416.685 0-833.252C183.811 63.7 367.544 31.3 551.493 0z" fill="var(--primary)" /><path d="M619.084 142.903h392.97V869.21h-392.97v-95.256h285.787v-47.627H619.084V666.81h285.787v-47.628H619.084c-0.118-23.342-0.118-46.684-0.255-70.007a167.012 167.012 0 0 0 143.021-14.108 163.082 163.082 0 0 0 73.348-130.014c-52.285-0.353-104.55-0.235-156.697-0.235-0.137-51.755 0.59-103.587-1.08-155.223q-29.316 5.717-58.455 12.024z" fill="#FFFFFF" /><path d="M702.472 224.68A167.582 167.582 0 0 1 859.17 380.65c-52.285 0.609-104.55 0.373-156.815 0.373 0-52.147-0.117-104.314 0.118-156.343zM261.816 379c23.46-1.062 52.52-5.365 68.337 16.661a86.453 86.453 0 0 1 1.553 78.103c-13.578 24.541-44.308 22.144-67.984 25.013-2.496-39.887-2.28-79.773-1.965-119.856z" fill="var(--primary)" /><path d="M55.232 557.88V412.362H98.89a146.46 146.46 0 0 1 32.341 2.18 35.23 35.23 0 0 1 19.393 14.246 47.785 47.785 0 0 1 7.86 28.333 50.673 50.673 0 0 1-4.5 22.537 39.14 39.14 0 0 1-11.435 14.343 38.216 38.216 0 0 1-14.108 6.897 145.556 145.556 0 0 1-28.235 2.082H82.524v54.898z m27.193-120.957v41.262H97.32a65.39 65.39 0 0 0 21.495-2.28 18.136 18.136 0 0 0 8.508-7.151 20.67 20.67 0 0 0 3.085-11.318 19.648 19.648 0 0 0-4.323-13.105 18.47 18.47 0 0 0-10.944-6.465 123.785 123.785 0 0 0-19.648-0.982z m98.243 120.956V412.363h43.659a146.46 146.46 0 0 1 32.341 2.18 35.23 35.23 0 0 1 19.393 14.246 47.785 47.785 0 0 1 7.86 28.333 50.673 50.673 0 0 1-4.5 22.537 39.14 39.14 0 0 1-11.435 14.343 38.216 38.216 0 0 1-14.108 6.897 145.556 145.556 0 0 1-28.235 2.082H207.96v54.898z m27.193-120.956v41.262h14.894a65.39 65.39 0 0 0 21.495-2.28 18.136 18.136 0 0 0 8.508-7.151 20.67 20.67 0 0 0 3.085-11.318 19.648 19.648 0 0 0-4.323-13.105 18.47 18.47 0 0 0-10.944-6.465 123.785 123.785 0 0 0-19.649-0.982zM336.52 557.88V436.923h-39.984v-24.56H403.56v24.56h-39.827V557.82z" fill="#FFFFFF" /></svg>
