<?xml version="1.0" standalone="no"?><!DOCTYPE svg PUBLIC "-//W3C//DTD SVG 1.1//EN" "http://www.w3.org/Graphics/SVG/1.1/DTD/svg11.dtd"><svg class="icon" width="128px" height="128.00px" viewBox="0 0 1024 1024" version="1.1" xmlns="http://www.w3.org/2000/svg"><path d="M121.8 7h555.4l277.7 277.5v667c0 30.7-24.9 55.6-55.6 55.6H121.8c-30.7 0-55.6-24.9-55.6-55.6V62.6C66.3 31.9 91.2 7 121.8 7z" fill="var(--primary)" /><path d="M677.4 7l277.8 277.8H732.9c-22.4 0-55.6-33.3-55.6-55.6V7z" fill="var(--primary)" /><path d="M656.8 795.4c13.3 0 26.4-2.1 39.2-6.4 12.8-4.3 24.4-10.3 34.7-18.1 10.4-7.8 18.7-17.2 25-28.3 6.3-11.1 9.4-23.5 9.4-37.2s-2.3-25.1-6.9-34.2-11-16.9-19.2-23.3-17.8-11.9-28.9-16.1c-11.1-4.3-23-8.2-35.6-11.9-14.4-4.1-26.4-7.7-35.8-10.8-9.4-3.1-17-6.5-22.8-10s-9.8-7.4-12.2-11.7c-2.4-4.3-3.6-9.7-3.6-16.4 0-7.4 1.7-13.8 5-19.2 3.3-5.4 7.8-9.9 13.3-13.6s11.8-6.4 18.6-8.1c6.9-1.7 14-2.5 21.4-2.5 15.6 0.4 27.6 2.6 36.1 6.7s17 9.4 25.6 16.1c4.8 4.1 8.5 7.1 11.1 9.2s5.2 3.1 7.8 3.1c5.9 0 10.2-2.6 12.8-7.8 2.6-5.2 3.9-10.7 3.9-16.7 0-4.8-2.4-9.9-7.2-15.3-4.8-5.4-11.5-10.5-20-15.3-8.5-4.8-18.7-8.8-30.6-11.9s-25-4.7-39.4-4.7c-13.7 0-26.6 1.9-38.6 5.6-12 3.7-22.6 9.1-31.7 16.1s-16.2 15.6-21.4 25.6c-5.2 10-7.8 21.3-7.8 33.9 0 12.2 1.8 22.5 5.3 30.8s9 15.5 16.4 21.4c7.4 5.9 16.8 11.1 28.1 15.6 11.3 4.4 24.7 8.7 40.3 12.8 15.2 4.1 27.6 8.1 37.2 11.9 9.6 3.9 17.1 8 22.5 12.2 5.4 4.3 9.1 8.9 11.1 13.9s3.1 10.8 3.1 17.5c0 14.4-6.2 26.3-18.6 35.6s-27.5 13.9-45.3 13.9c-15.6 0-28.4-2-38.6-6.1-10.2-4.1-18.5-8.5-25-13.3-6.5-4.8-11.8-9.4-15.8-13.6-4.1-4.3-8-6.4-11.7-6.4-5.9-0.4-10 2.2-12.2 7.8s-3.3 10.6-3.3 15c0 4.1 2.5 9.2 7.5 15.3s12 12.1 21.1 18.1c9.1 5.9 20.1 10.9 33.1 15 12.8 3.7 27.1 5.8 42.6 5.8zM285.7 792.6c7.8 0 13.3-1.9 16.7-5.8 3.3-3.9 5-9.4 5-16.4V642.6H383c81.9 0 122.8-39.6 122.8-118.9 0-40.4-10-69.9-30-88.6-20-18.7-50.9-28.1-92.8-28.1h-87.8c-13.3 0-21.9 1.8-25.8 5.3-3.9 3.5-5.8 10.6-5.8 21.4v336.7c0 6.3 1.7 11.6 5 15.8s9 6.4 17.1 6.4z" fill="var(--primary)" /><path d="M390.2 604.1h-75.6V445.2h75.6c25.6 0 45.2 6.1 58.9 18.3 13.7 12.2 20.6 32.2 20.6 60 0 27.8-6.1 48.1-18.3 61.1-12.3 13-32.7 19.5-61.2 19.5z" fill="var(--primary)" /></svg>
