<?xml version="1.0" standalone="no"?><!DOCTYPE svg PUBLIC "-//W3C//DTD SVG 1.1//EN" "http://www.w3.org/Graphics/SVG/1.1/DTD/svg11.dtd"><svg class="icon" width="128px" height="128.00px" viewBox="0 0 1024 1024" version="1.1" xmlns="http://www.w3.org/2000/svg"><path fill="var(--primary)" d="M709 206.8h55.5v23.6H709v-23.6z m-55.5 35.3H709v23.6h-55.5v-23.6z m55.5 38.6h55.5v23.6H709v-23.6z m0 74.6h55.5v23.6H709v-23.6z m-55.5-37.9H709V341h-55.5v-23.6z m55 84.4c-30.3 0-44.8 25.4-44.8 56.6l-10.2 94.9c0 31.3 24.6 56.6 54.9 56.6 30.3 0 54.9-25.4 54.9-56.6l-10.1-94.9c0-31.2-14.4-56.6-44.7-56.6z m18.2 183.3h-36.4v-79.2h36.4v79.2z m-375-67.5h34.2l-16.8-65-17.4 65z m161.7-49c0.4-18.8-6.8-28-21.5-27.5h-25.3v51.4H492c15 0.4 22.1-7.5 21.4-23.9zM275.5 471c0.3-18.3-6.6-27.3-20.9-26.8H230v50.1h24.6c14.7 0.4 21.7-7.4 20.9-23.3z m0 0"  /><path fill="var(--primary)" d="M860.3 165.1H626.9c-1 0-2 0.1-3.1 0.2V98.7L116 161.4v667.7l507.8 64.3v-68.6c1 0 2 0.1 3.1 0.1h233.3c27.3 0 49.5-22.9 49.5-51V216.2c0.1-28.2-22.1-51.1-49.4-51.1zM278.2 574.6l-32.1-58.5H230v58.5h-25.2V423H260c27.9 0 41.8 15.7 41.8 47.2 0.3 26.8-9.1 41.6-28.4 44.4l34.3 59.9h-29.5z m123.4 0.2l-9.8-35h-45.6l-9.8 35h-27.1l44-153.6h31.5l44 153.6h-27.2z m114.6 0.1l-33-60.1h-16.5v60.1h-25.9V419.3h56.6c28.6 0 42.9 16.2 42.9 48.5 0.4 27.5-9.4 42.7-29.2 45.6l35.2 61.5h-30.1z m365.3 199c0 12.1-9.5 21.9-21.2 21.9H626.9c-1 0-2.1-0.2-3.1-0.3V194.6c1-0.2 2-0.3 3.1-0.3h233.3c11.7 0 21.2 9.8 21.2 21.9v557.7h0.1z m0 0"  /></svg>
