<?xml version="1.0" standalone="no"?><!DOCTYPE svg PUBLIC "-//W3C//DTD SVG 1.1//EN" "http://www.w3.org/Graphics/SVG/1.1/DTD/svg11.dtd"><svg class="icon" width="128px" height="128.00px" viewBox="0 0 1024 1024" version="1.1" xmlns="http://www.w3.org/2000/svg"><path d="M102.784 0c-19.2 0-38.4 19.2-38.4 38.4v947.2c0 19.2 19.2 38.4 38.4 38.4h806.4c19.2 0 38.4-19.2 38.4-38.4V224l-224-224h-620.8z" fill="var(--primary)" /><path d="M723.616 0v184.32c0 19.2 19.2 39.68 39.68 39.68h184.32l-224-224z" fill="var(--primary)" /><path d="M266.688 541.792H311.36c50.72 0 82.56-26.752 82.56-67.52 0-44.992-31.808-65.696-80.768-65.696-23.872 0-39.168 1.824-46.496 3.648v129.6zM192 360.512C220.16 355.648 262.336 352 305.824 352c59.328 0 99.712 9.728 127.264 32.864 22.656 18.88 35.488 47.424 35.488 82.112 0 52.928-36.128 88.832-74.656 102.816v1.856c29.376 10.912 47.136 39.52 57.536 79.04 12.864 51.104 23.872 98.56 32.416 114.4h-77.696c-6.144-12.16-15.936-45.632-27.52-96.736-11.648-53.568-31.232-70.56-74.048-71.776H266.656v168.512H192V360.512z m422.848 191.04c9.184 2.432 21.44 3.008 36.704 3.008 56.32 0 90.56-27.328 90.56-75.424 0-45.6-31.808-69.952-83.84-69.952-20.8 0-35.488 1.824-43.424 3.648v138.72z m-74.688-191.04c26.976-4.864 64.256-8.512 115.072-8.512 55.072 0 95.456 11.552 121.792 33.44 24.48 20.096 40.352 52.352 40.352 90.656 0 38.944-12.224 71.2-35.456 93.12-30.016 29.76-77.12 43.776-130.368 43.776-14.08 0-26.944-0.608-36.704-2.464v154.56H540.16V360.512z" fill="#FFFFFF" /></svg>
