<?xml version="1.0" standalone="no"?><!DOCTYPE svg PUBLIC "-//W3C//DTD SVG 1.1//EN" "http://www.w3.org/Graphics/SVG/1.1/DTD/svg11.dtd"><svg class="icon" width="128px" height="128.00px" viewBox="0 0 1024 1024" version="1.1" xmlns="http://www.w3.org/2000/svg"><path d="M153.6 0h563.2l204.8 204.8v768a51.2 51.2 0 0 1-51.2 51.2H153.6a51.2 51.2 0 0 1-51.2-51.2V51.2a51.2 51.2 0 0 1 51.2-51.2z" fill="var(--primary)" /><path d="M716.8 0l204.8 204.8h-153.6a51.2 51.2 0 0 1-51.2-51.2z" fill="var(--primary)" /><path d="M419.84 730.368a25.6 25.6 0 0 1-25.6-25.6V421.632a25.6 25.6 0 0 1 12.8-22.272 25.6 25.6 0 0 1 25.6 0l245.504 141.568a25.6 25.6 0 0 1 0 44.544L432.64 727.04a25.6 25.6 0 0 1-12.8 3.328z m25.6-264.448v194.56L614.4 563.2z" fill="#FFFFFF" /></svg>
