<?xml version="1.0" standalone="no"?><!DOCTYPE svg PUBLIC "-//W3C//DTD SVG 1.1//EN" "http://www.w3.org/Graphics/SVG/1.1/DTD/svg11.dtd"><svg class="icon" width="128px" height="128.00px" viewBox="0 0 1024 1024" version="1.1" xmlns="http://www.w3.org/2000/svg"><path d="M755.958995 0H136.361809v1024h813.025126V193.479397L755.958995 0z" fill="var(--primary)" /><path d="M74.613065 699.819095h694.673367v272.723619H74.613065z" fill="var(--primary)" /><path d="M84.904523 710.110553h674.090452v252.140703H84.904523z" fill="#FFFFFF" /><path d="M753.849246 5.145729l190.39196 190.391959h-190.39196V5.145729zM436.306332 288.160804L290.733668 320.321608s1.13206 83.772462 159.517588 123.960603c0 0-175.366432 42.452261-145.572663 142.330854l126.070352-21.817889s0-105.590352 90.513367-91.851256c90.564824 14.922613 108.883618 79.192764 114.595376 104.458291l159.517588-24.133467s-11.474975-98.695075-167.339095-140.066734c0 0 140.992965-27.529648 90.513367-118.351759L589.854874 319.035176s28.661709 61.748744-27.529648 70.033367C506.185327 398.382312 460.542714 370.801206 436.306332 288.160804z" fill="#FFFFFF" /><path d="M648.361809 820.074774c-15.437186 0-25.728643 13.018693-25.728643 33.601608s9.725427 33.601608 25.728643 33.601608 25.728643-13.018693 25.728643-33.601608-10.342915-33.601608-25.728643-33.601608z m-7.358392 87.2201c-26.140302 0-43.121206-20.582915-43.121206-53.721407s16.980905-53.618492 43.121206-53.618492a34.527839 34.527839 0 0 1 32.160804 19.193568h0.56603v-54.956382h24.390754V905.648241h-23.927638v-17.752764h-0.411658a35.299698 35.299698 0 0 1-32.778292 19.399397zM490.182111 905.648241h24.390753v-60.205025c0-14.871156 8.902111-25.008241 22.94995-25.008241s20.582915 8.233166 20.582915 22.94995V905.648241h24.390753v-66.894472c0-24.030553-13.018693-38.695879-36.0201-38.69588a33.395779 33.395779 0 0 0-32.62392 19.811056h-0.514573v-17.855679h-23.155778z m-32.726835-117.528442a13.27598 13.27598 0 1 0-13.533266-13.224523 13.327437 13.327437 0 0 0 13.533266 13.224523zM445.105528 905.648241h24.390753v-103.892261H445.105528z m-169.448845 0h24.390754v-63.652663a20.068342 20.068342 0 0 1 20.016885-21.663518 17.238191 17.238191 0 0 1 18.421708 18.730453V905.648241h23.721809v-64.218693a19.502312 19.502312 0 0 1 19.811055-21.04603c11.93809 0 18.627538 7.255477 18.627538 19.965427V905.648241h24.390754v-71.268342c0-20.582915-13.430352-34.579296-33.910352-34.579296a33.498693 33.498693 0 0 0-32.315176 20.891658h-0.617487a27.992764 27.992764 0 0 0-29.02191-20.891658 30.514171 30.514171 0 0 0-29.587939 19.965427h-0.514573v-18.01005h-23.155779zM136.361809 905.648241h27.529648l33.704523-51.971859h0.771859l33.344322 51.971859h29.124824l-46.311558-70.239196v-0.668944l47.134875-70.445026h-28.301508l-33.18995 53.052463h-0.771859l-32.726834-53.10392h-29.896684l45.642613 69.878995v0.668945z" fill="var(--primary)" /></svg>
