<svg xmlns="http://www.w3.org/2000/svg" width="24.14" height="24" viewBox="0 0 24.14 24">
  <defs>
    <style>
      .cls-1 {
        fill: currentColor;
      }

      .cls-2 {
        fill: none;
      }
    </style>
  </defs>
  <g id="排序" transform="translate(-329 -610)">
    <g id="组_8" data-name="组 8" transform="translate(73)">
      <rect id="矩形_14" data-name="矩形 14" class="cls-1" width="11.137" height="2.118" rx="1.059" transform="translate(261.569 613)"/>
      <path id="路径_29" data-name="路径 29" class="cls-1" d="M1.026.119,5-.142a.849.849,0,0,1,.928.928A1.167,1.167,0,0,1,4.869,1.845L.9,2.106a.849.849,0,0,1-.928-.928A1.167,1.167,0,0,1,1.026.119Z" transform="translate(274.455 629.342) rotate(-45)"/>
      <rect id="矩形_15" data-name="矩形 15" class="cls-1" width="14.85" height="2.118" rx="1.059" transform="translate(257.856 621.471)"/>
      <rect id="矩形_16" data-name="矩形 16" class="cls-1" width="16.706" height="2.118" rx="1.059" transform="translate(256 628.882)"/>
      <rect id="矩形_17" data-name="矩形 17" class="cls-1" width="18" height="1.856" rx="0.928" transform="translate(276.419 613) rotate(90)"/>
    </g>
    <rect id="矩形_204" data-name="矩形 204" class="cls-2" width="24" height="24" transform="translate(329 610)"/>
  </g>
</svg>
