<svg t="1677746038478" class="icon" viewBox="0 0 1024 1024" version="1.1" xmlns="http://www.w3.org/2000/svg" p-id="17166" width="200" height="200"><path d="M970.666667 213.333333H546.586667a10.573333 10.573333 0 0 1-7.54-3.126666L429.793333 100.953333A52.986667 52.986667 0 0 0 392.08 85.333333H96a53.393333 53.393333 0 0 0-53.333333 53.333334v704a53.393333 53.393333 0 0 0 53.333333 53.333333h874.666667a53.393333 53.393333 0 0 0 53.333333-53.333333V266.666667a53.393333 53.393333 0 0 0-53.333333-53.333334zM661.333333 554.666667H554.666667v106.666666a21.333333 21.333333 0 0 1-42.666667 0V554.666667H405.333333a21.333333 21.333333 0 0 1 0-42.666667h106.666667V405.333333a21.333333 21.333333 0 0 1 42.666667 0v106.666667h106.666666a21.333333 21.333333 0 0 1 0 42.666667z" fill="currentColor" p-id="17167"></path></svg>
