<svg t="1680255061628" class="icon" viewBox="0 0 1024 1024" version="1.1" xmlns="http://www.w3.org/2000/svg" p-id="2577" width="200" height="200"><path d="M593.92 128c11.1104 0 20.48 9.3696 20.48 20.48v163.84c0 11.1104-9.3696 20.48-20.48 20.48H430.08c-11.1104 0-20.48-9.3696-20.48-20.48V148.48c0-11.1104 9.3696-20.48 20.48-20.48h163.84m281.6 593.92c11.1104 0 20.48 9.3696 20.48 20.48v133.12c0 11.1104-9.3696 20.48-20.48 20.48h-133.12c-11.1104 0-20.48-9.3696-20.48-20.48v-133.12c0-11.1104 9.3696-20.48 20.48-20.48h133.12m-296.96 0c11.1104 0 20.48 9.3696 20.48 20.48v133.12c0 11.1104-9.3696 20.48-20.48 20.48H445.44c-11.1104 0-20.48-9.3696-20.48-20.48v-133.12c0-11.1104 9.3696-20.48 20.48-20.48h133.12m-296.96 0c11.1104 0 20.48 9.3696 20.48 20.48v133.12c0 11.1104-9.3696 20.48-20.48 20.48H148.48c-11.1104 0-20.48-9.3696-20.48-20.48v-133.12c0-11.1104 9.3696-20.48 20.48-20.48h133.12m312.32-634.88H430.08c-33.792 0-61.44 27.648-61.44 61.44v163.84c0 33.792 27.648 61.44 61.44 61.44h61.44v97.28H221.4912c-14.848 0-26.9312 12.0832-26.9312 26.9312V680.96h-46.08c-33.792 0-61.44 27.648-61.44 61.44v133.12c0 33.792 27.648 61.44 61.44 61.44h133.12c33.792 0 61.44-27.648 61.44-61.44v-133.12c0-33.792-27.648-61.44-61.44-61.44h-46.08v-155.2896c0-7.5776 6.144-13.6704 13.6704-13.6704H491.52v168.96h-46.08c-33.792 0-61.44 27.648-61.44 61.44v133.12c0 33.792 27.648 61.44 61.44 61.44h133.12c33.792 0 61.44-27.648 61.44-61.44v-133.12c0-33.792-27.648-61.44-61.44-61.44h-46.08v-168.96h242.3296c7.5776 0 13.6704 6.144 13.6704 13.6704V680.96h-46.08c-33.792 0-61.44 27.648-61.44 61.44v133.12c0 33.792 27.648 61.44 61.44 61.44h133.12c33.792 0 61.44-27.648 61.44-61.44v-133.12c0-33.792-27.648-61.44-61.44-61.44h-46.08V497.9712a26.9312 26.9312 0 0 0-26.9312-26.9312H532.48V373.76h61.44c33.792 0 61.44-27.648 61.44-61.44V148.48c0-33.792-27.648-61.44-61.44-61.44z" fill="currentColor" p-id="2578"></path></svg>
