<svg t="1684139465271" class="icon" viewBox="0 0 1024 1024" version="1.1" xmlns="http://www.w3.org/2000/svg" p-id="3631" width="200" height="200"><path d="M794.17 147.91c45.16 0.2 81.71 36.76 81.92 81.92v564.34c-0.2 45.16-36.76 81.71-81.92 81.92H229.83c-45.16-0.2-81.71-36.76-81.92-81.92V229.83c0.2-45.16 36.76-81.71 81.92-81.92h564.34m0-45.51H229.83c-70.09 0-127.43 57.34-127.43 127.43v564.34c0 70.08 57.34 127.43 127.43 127.43h564.34c70.08 0 127.43-57.34 127.43-127.43V229.83c0-70.09-57.34-127.43-127.43-127.43z" p-id="3632" fill="currentColor"></path><path d="M256.75 680.7h510.5c18.91 0 28.36 9.45 28.36 28.36s-9.45 28.36-28.36 28.36h-510.5c-18.91 0-28.36-9.45-28.36-28.36s9.46-28.36 28.36-28.36zM236.78 286.58v268.08h40.93V353.04h1.5l138.55 201.63h39.8V286.58h-40.93v199.37h-1.5L278.08 286.58h-41.3z m359.32 68.71c29.29 0 52.94 9.76 70.59 29.28 17.27 19.15 26.28 43.56 26.28 73.21 0 29.29-8.64 53.69-25.91 72.46-18.02 19.52-41.68 29.66-70.96 29.66-29.29 0-52.94-10.14-70.96-29.66-17.27-18.77-25.91-43.18-25.91-72.46 0-29.66 8.64-54.07 26.29-73.21 17.64-19.52 41.3-29.28 70.58-29.28z m0 32.67c-18.4 0-32.66 7.13-42.8 21.78-9.01 12.39-13.15 28.54-13.15 48.06s4.13 35.29 13.15 47.68c10.14 14.27 24.4 21.78 42.8 21.78s32.67-7.51 43.18-21.78c9.01-12.77 13.52-28.54 13.52-47.68 0-19.52-4.5-35.67-13.52-48.06-10.51-14.65-24.78-21.78-43.18-21.78z m163.33 113.01a25.984 25.984 0 0 0-19.52 7.51 24.957 24.957 0 0 0-7.89 19.15c0 7.51 2.63 13.89 7.89 19.15s11.64 7.89 19.52 7.89c7.51 0 14.27-2.63 19.52-7.51 5.26-5.26 8.26-11.64 8.26-19.53 0-7.88-2.63-14.27-7.88-19.15-5.25-5.26-12.01-7.51-19.9-7.51z" p-id="3633" fill="currentColor"></path></svg>
