<svg t="1683352595396" class="icon" viewBox="0 0 1024 1024" version="1.1" xmlns="http://www.w3.org/2000/svg" p-id="2535" width="200" height="200"><path d="M662.869333 180.138667l60.330667 60.288-196.096 196.138666a21.333333 21.333333 0 0 0 0 30.165334l30.165333 30.165333a21.333333 21.333333 0 0 0 30.165334 0l196.138666-196.096 60.288 60.330667a21.333333 21.333333 0 0 0 36.437334-15.061334V165.034667a21.333333 21.333333 0 0 0-21.333334-21.333334h-181.034666a21.333333 21.333333 0 0 0-15.061334 36.437334zM180.138667 662.869333a21.333333 21.333333 0 0 0-36.437334 15.061334v181.034666a21.333333 21.333333 0 0 0 21.333334 21.333334h181.034666a21.333333 21.333333 0 0 0 15.061334-36.437334L300.8 783.573333l196.096-196.138666a21.333333 21.333333 0 0 0 0-30.165334l-30.165333-30.165333a21.333333 21.333333 0 0 0-30.165334 0L240.426667 723.2z" fill="currentColor" opacity=".65" p-id="2536"></path></svg>
