<svg width="1em" height="1em" viewBox="0 0 24 24" fill="none" xmlns="http://www.w3.org/2000/svg" data-icon="StyleOutlined"><path d="M14 5a1 1 0 1 0 0 2h8a1 1 0 1 0 0-2h-8Zm1 7a1 1 0 0 1 1-1h6a1 1 0 1 1 0 2h-6a1 1 0 0 1-1-1Zm3 5a1 1 0 1 0 0 2h4a1 1 0 1 0 0-2h-4Zm-3.201 4.223-2.449-5.946H4.77a1.16 1.16 0 0 1-.187-.016L2.498 21.17a1.105 1.105 0 1 1-2.084-.736L6.562 3.013c.507-1.435 2.517-1.486 3.096-.08l7.184 17.448a1.105 1.105 0 0 1-2.043.841ZM8.165 5.113l-2.808 7.954h6.083L8.165 5.112Z" fill="currentColor"></path></svg>
