<svg t="1683615278985" class="icon" viewBox="0 0 1024 1024" version="1.1" xmlns="http://www.w3.org/2000/svg" p-id="5357" width="200" height="200"><path d="M100.693333 420.138667a29.653333 29.653333 0 0 1-29.141333-34.517334l12.245333-71.424L32 263.722667a29.610667 29.610667 0 0 1 16.384-50.474667l71.637333-10.410667 32-64.853333a30.72 30.72 0 0 1 53.077334-0.085333v0.042666l32 64.853334 71.594666 10.453333a29.568 29.568 0 0 1 16.384 50.474667L273.28 314.197333l12.245333 71.338667a29.610667 29.610667 0 0 1-42.922666 31.189333l-64.042667-33.706666-64.042667 33.706666a29.269333 29.269333 0 0 1-13.824 3.413334z m71.765334-40.32l0.170666 0.085333z m6.101333-41.130667a29.696 29.696 0 0 1 13.909333 3.456l46.506667 24.490667-8.96-51.968a29.738667 29.738667 0 0 1 8.448-26.112l37.888-36.906667-52.224-7.594667a29.696 29.696 0 0 1-22.272-16.128l-23.296-47.36-23.338667 47.317334a29.653333 29.653333 0 0 1-22.186666 16.213333l-52.266667 7.552 37.717333 36.821333a29.568 29.568 0 0 1 8.533334 26.154667l-8.96 52.010667 46.72-24.533334a29.44 29.44 0 0 1 13.781333-3.413333zM88.746667 319.018667l0.042666 0.042666z m151.381333-110.037334zM434.176 420.138667a29.653333 29.653333 0 0 1-29.184-34.517334l12.245333-71.424-51.797333-50.474666a29.568 29.568 0 0 1 16.426667-50.474667l71.594666-10.410667 32-64.853333a30.72 30.72 0 0 1 53.077334-0.085333l32 64.938666 71.637333 10.410667a29.568 29.568 0 0 1 16.426667 50.432 21.333333 21.333333 0 0 1-35.626667-10.112l-65.408-9.514667a29.696 29.696 0 0 1-22.229333-16.128L512 180.565333l-23.338667 47.317334a29.653333 29.653333 0 0 1-22.186666 16.213333l-52.266667 7.552 37.76 36.821333a29.738667 29.738667 0 0 1 8.533333 26.154667L449.28 379.733333a21.333333 21.333333 0 0 1-1.322667 37.034667 29.610667 29.610667 0 0 1-13.781333 3.413333zM923.306667 420.138667a29.824 29.824 0 0 1-13.866667-3.413334l-64-33.706666-64 33.706666a29.610667 29.610667 0 0 1-42.965333-31.232l12.245333-71.253333L698.88 263.68a29.568 29.568 0 0 1 16.426667-50.474667l71.552-10.410666 32-64.853334a29.44 29.44 0 0 1 26.538666-16.512h0.085334a29.312 29.312 0 0 1 26.453333 16.469334l32 64.853333 71.68 10.453333a29.610667 29.610667 0 0 1 16.426667 50.389334l-51.882667 50.56 12.245333 71.338666a29.696 29.696 0 0 1-29.141333 34.602667z m-71.594667-40.362667l-0.170667 0.085333z m-6.314667-41.088a29.525333 29.525333 0 0 1 13.824 3.413333l46.677334 24.533334-8.96-51.968a29.696 29.696 0 0 1 8.618666-26.282667l37.674667-36.736-52.181333-7.594667a29.696 29.696 0 0 1-22.272-16.128l-23.338667-47.36-23.296 47.317334a29.653333 29.653333 0 0 1-22.229333 16.213333l-52.266667 7.552 37.76 36.821333a29.738667 29.738667 0 0 1 8.533333 26.154667l-8.96 52.010667 46.72-24.533334a28.8 28.8 0 0 1 13.696-3.413333z m89.941334-19.712h-0.085334z m34.133333-63.530667z m-135.808-98.688l0.042667 0.128v-0.042666z" p-id="5358" fill="currentColor"></path><path d="M535.424 923.221333a21.333333 21.333333 0 0 1-6.826667-1.152 813.482667 813.482667 0 0 1-202.069333-104.149333 84.010667 84.010667 0 0 1 3.84-136.192c38.357333-24.917333 70.826667-9.770667 111.829333 9.386667 7.168 3.328 14.933333 6.954667 23.381334 10.666666a10.837333 10.837333 0 0 0 10.282666-0.768 10.581333 10.581333 0 0 0 4.992-9.173333V366.933333a83.754667 83.754667 0 1 1 167.466667 0v125.312a318.122667 318.122667 0 0 1 40.490667 6.058667 334.506667 334.506667 0 0 1 161.109333 84.736c49.792 47.658667 46.037333 198.4-25.941333 287.189333a21.333333 21.333333 0 0 1-33.194667-26.88c63.274667-77.952 58.624-201.728 29.653333-229.546666a292.053333 292.053333 0 0 0-140.629333-73.813334 267.264 267.264 0 0 0-53.034667-6.101333 21.333333 21.333333 0 0 1-21.12-21.333333V366.976a41.088 41.088 0 1 0-82.133333 0v324.864a53.504 53.504 0 0 1-75.264 48.981333c-8.704-3.882667-16.64-7.594667-24.106667-11.050666-40.405333-18.901333-52.821333-23.850667-70.570666-12.288a39.893333 39.893333 0 0 0-17.322667 32.725333 39.082667 39.082667 0 0 0 15.616 33.365333 782.464 782.464 0 0 0 190.378667 98.133334 21.333333 21.333333 0 0 1-6.826667 41.514666z" p-id="5359" fill="currentColor"></path></svg>
