<svg t="1683352456766" class="icon" viewBox="0 0 1024 1024" version="1.1" xmlns="http://www.w3.org/2000/svg" p-id="4496" width="200" height="200"><path d="M370.752 608L129.6 849.152a32 32 0 0 0 45.248 45.248L416 653.248V768a32 32 0 0 0 64 0v-192a31.904 31.904 0 0 0-32-32H256a32 32 0 0 0 0 64h114.752z m182.624-137.376A31.904 31.904 0 0 1 544 448V256a32 32 0 0 1 64 0v114.752l241.152-241.152a32 32 0 1 1 45.248 45.248L653.248 416H768a32 32 0 0 1 0 64h-192a31.904 31.904 0 0 1-22.624-9.376z" fill="currentColor" p-id="4497"></path></svg>
