<svg width="1em" height="1em" viewBox="0 0 24 24" fill="none" xmlns="http://www.w3.org/2000/svg" data-icon="InvisibleOutlined"><path d="M2.032 8.172a1 1 0 0 1 1.388.267C5.263 11.159 8.637 13 12 13c3.364 0 6.737-1.841 8.58-4.561a1 1 0 0 1 1.656 1.122 11.928 11.928 0 0 1-2.002 2.259l2.009 2.008a1 1 0 1 1-1.415 1.415l-2.12-2.122a1.003 1.003 0 0 1-.085-.096c-.745.472-1.54.87-2.368 1.181l.712 2.658a1 1 0 1 1-1.932.517l-.702-2.62A11.64 11.64 0 0 1 12 15c-.71 0-1.42-.068-2.118-.197l-.691 2.578a1 1 0 1 1-1.932-.517l.692-2.582a13.01 13.01 0 0 1-2.607-1.278c-.03.04-.064.08-.101.117L3.12 15.243a1 1 0 1 1-1.414-1.415l2.032-2.032a11.919 11.919 0 0 1-1.974-2.235 1 1 0 0 1 .267-1.389Z" fill="currentColor"></path></svg>
