<svg t="1678931489274" class="icon" viewBox="0 0 1024 1024" version="1.1" xmlns="http://www.w3.org/2000/svg" p-id="1158" width="200" height="200"><path d="M337.92 159.744c13.517 0 24.576 11.06 24.576 24.576 0 13.517-11.06 24.576-24.576 24.576H256c-43.008 0-77.824 34.816-77.824 77.824v491.52c0 43.008 34.816 77.824 77.824 77.824h532.48c43.008 0 77.824-34.816 77.824-77.824V286.72c0-43.008-34.816-77.824-77.824-77.824h-81.92c-13.517 0-24.576-11.06-24.576-24.576 0-13.517 11.06-24.576 24.576-24.576h81.92c70.042 0 126.976 56.934 126.976 126.976v491.52c0 70.042-56.934 126.976-126.976 126.976H256c-70.042 0-126.976-56.934-126.976-126.976V286.72c0-70.042 56.934-126.976 126.976-126.976zM512.344 301c6.348 0 12.492 2.458 17.408 7.168l107.315 107.315c9.614 9.614 9.614 25.202 0 34.816-9.615 9.614-25.202 9.614-34.816 0l-65.536-65.536v312.524c0 13.517-11.06 24.576-24.576 24.576-13.517 0-24.576-11.059-24.576-24.576v-312.32l-65.536 65.536c-9.615 9.615-25.202 9.615-34.816 0-9.615-9.614-9.615-25.201 0-34.816l106.906-106.906v0.001c2.457-2.662 5.324-4.71 8.806-5.939 1.024-0.41 2.253-0.41 3.277-0.614 1.843-0.41 3.686-1.229 5.734-1.229h0.41z" fill="currentColor" p-id="1159"></path></svg>
