<svg t="1678931384962" class="icon" viewBox="0 0 1024 1024" version="1.1" xmlns="http://www.w3.org/2000/svg" p-id="1012" width="200" height="200"><path d="M327.896 139c13.517 0 24.576 11.06 24.576 24.576 0 13.517-11.06 24.576-24.576 24.576h-81.92c-43.008 0-77.824 34.816-77.824 77.824v491.52c0 43.008 34.816 77.824 77.824 77.824h532.48c43.008 0 77.824-34.816 77.824-77.824v-491.52c0-43.008-34.816-77.824-77.824-77.824h-81.92c-13.517 0-24.576-11.06-24.576-24.576 0-13.517 11.06-24.576 24.576-24.576h81.92c70.042 0 126.976 56.934 126.976 126.976v491.52c0 70.042-56.934 126.976-126.976 126.976h-532.48C175.934 884.472 119 827.538 119 757.496v-491.52C119 195.934 175.934 139 245.976 139z m184.524 8.602c13.517 0 24.576 11.06 24.576 24.576v312.524l65.536-65.536c9.614-9.614 25.202-9.614 34.816 0 9.614 9.615 9.614 25.202 0 34.816L530.033 561.297c-4.915 4.71-11.059 7.168-17.408 7.168h-0.41c-2.047 0-3.89-0.819-5.734-1.228-1.024-0.205-2.253-0.205-3.277-0.615-3.481-1.229-6.348-3.277-8.806-5.939v0.001L387.492 453.778c-9.614-9.614-9.614-25.202 0-34.816s25.202-9.614 34.816 0l65.536 65.536v-312.32c0-13.517 11.06-24.576 24.576-24.576z" fill="currentColor" p-id="1013"></path></svg>
