<svg width="1em" height="1em" viewBox="0 0 24 24" fill="none" xmlns="http://www.w3.org/2000/svg" data-icon="BitableformOutlined"><path d="M6.17 3A3.001 3.001 0 0 1 9 1h6c1.306 0 2.418.835 2.83 2H20a2 2 0 0 1 2 2v8h-2V5h-2.17A3.001 3.001 0 0 1 15 7H9a3.001 3.001 0 0 1-2.83-2H4v15h9v2H4a2 2 0 0 1-2-2V5a2 2 0 0 1 2-2h2.17ZM9 3a1 1 0 0 0 0 2h6a1 1 0 1 0 0-2H9Z" fill="currentColor"></path><path d="M12 14.5a1 1 0 1 1 0 2H8a1 1 0 1 1 0-2h4ZM7 11a1 1 0 0 1 1-1h8a1 1 0 1 1 0 2H8a1 1 0 0 1-1-1Zm16.31 4.678a1 1 0 0 0-1.47-1.356l-4.358 4.723-1.688-1.741a1 1 0 1 0-1.436 1.392l2.424 2.5a1 1 0 0 0 1.453-.018l5.076-5.5Z" fill="currentColor"></path></svg>
