<svg width="1em" height="1em" viewBox="0 0 24 24" fill="none" xmlns="http://www.w3.org/2000/svg" data-icon="TableGroupOutlined"><path d="M10 9a1 1 0 0 1 1-1h6.5a1 1 0 1 1 0 2H11a1 1 0 0 1-1-1Zm1 5a1 1 0 1 0 0 2h6.5a1 1 0 1 0 0-2H11ZM8.25 9a1.25 1.25 0 1 1-2.5 0 1.25 1.25 0 0 1 2.5 0Zm-1.5 7.25a1.25 1.25 0 1 0 0-2.5 1.25 1.25 0 0 0 0 2.5Z" fill="currentColor"></path><path d="M3.5 2a2 2 0 0 0-2 2v16a2 2 0 0 0 2 2h17a2 2 0 0 0 2-2V4a2 2 0 0 0-2-2h-17Zm17 2v16h-17V4h17Z" fill="currentColor"></path></svg>
