<svg t="1677579533625" class="icon" viewBox="0 0 1024 1024" version="1.1" xmlns="http://www.w3.org/2000/svg" p-id="740" width="200" height="200"><path d="M812 942H212c-71.68 0-130-58.32-130-130V672c0-16.56 13.43-30 30-30s30 13.44 30 30v140c0 38.59 31.41 70 70 70h600c38.59 0 70-31.41 70-70V672c0-16.56 13.44-30 30-30s30 13.44 30 30v140c0 71.68-58.32 130-130 130z" p-id="741"></path><path d="M512 742c-7.68 0-15.35-2.93-21.21-8.79L236.23 478.65c-11.72-11.71-11.72-30.71 0-42.42 11.72-11.72 30.7-11.72 42.42 0l254.56 254.56c11.72 11.72 11.72 30.7 0 42.42A29.893 29.893 0 0 1 512 742z" p-id="742"></path><path d="M512 742c-7.68 0-15.35-2.93-21.21-8.79-11.72-11.72-11.72-30.7 0-42.42l254.55-254.56c11.72-11.72 30.7-11.72 42.42 0 11.72 11.71 11.72 30.7 0 42.42L533.21 733.21A29.893 29.893 0 0 1 512 742z" p-id="743"></path><path d="M512 742c-16.57 0-30-13.44-30-30V112c0-16.57 13.43-30 30-30s30 13.43 30 30v600c0 16.56-13.43 30-30 30z" p-id="744" fill="currentColor"></path></svg>
