<svg width="1em" height="1em" viewBox="0 0 24 24" fill="none" xmlns="http://www.w3.org/2000/svg" data-icon="SorAToZOutlined"><path d="M17 1.333h-1.803s-.419.137-.498.343l-3.664 9.598a.533.533 0 0 0 .498.724h.978a.533.533 0 0 0 .5-.347l.664-1.785h4.841l.663 1.786c.078.21.277.348.5.348h.987a.533.533 0 0 0 .498-.724l-3.666-9.6A.533.533 0 0 0 17 1.333Zm.725 6.4h-3.264l1.605-4.316h.05l1.61 4.316Zm-6.175 6.4c0-.294.238-.533.533-.533h8.522c.295 0 .534.239.534.534v.703c0 .154-.067.3-.183.402l-6.068 5.298h5.717c.295 0 .534.24.534.534v1.063a.533.533 0 0 1-.534.533h-8.522a.533.533 0 0 1-.534-.534v-.973c0-.154.067-.3.183-.402l5.763-5.027h-5.412a.533.533 0 0 1-.534-.534v-1.063Zm-8.923 2.534h2.705V3.2c0-.294.238-.533.533-.533h.933c.295 0 .534.239.534.533v19.16a.533.533 0 0 1-.965.314l-4-5.499a.32.32 0 0 1 .26-.508Z" fill="currentColor"></path></svg>
