<svg t="1713841398477" class="icon" viewBox="0 0 1029 1024" version="1.1" xmlns="http://www.w3.org/2000/svg" p-id="1609" width="200" height="200"><path d="M67.84 115.2c0-45.24544 36.67456-81.92 81.92-81.92h665.6c45.24544 0 81.92 36.67456 81.92 81.92v236.8a30.72 30.72 0 1 1-61.44 0V115.2a20.48 20.48 0 0 0-20.48-20.48h-665.6a20.48 20.48 0 0 0-20.48 20.48v793.6a20.48 20.48 0 0 0 20.48 20.48h268.8a30.72 30.72 0 1 1 0 61.44h-268.8c-45.24544 0-81.92-36.67456-81.92-81.92v-793.6z" p-id="1610" fill="currentColor"></path><path d="M221.44 448a30.72 30.72 0 0 1 30.72-30.72h256a30.72 30.72 0 1 1 0 61.44h-256a30.72 30.72 0 0 1-30.72-30.72zM221.44 243.2a30.72 30.72 0 0 1 30.72-30.72h460.8a30.72 30.72 0 1 1 0 61.44h-460.8a30.72 30.72 0 0 1-30.72-30.72z" p-id="1611" fill="currentColor"></path><path d="M620.04224 758.42048c0-60.16512 48.768-108.93824 108.93824-108.93824 60.16512 0 108.93824 48.77312 108.93824 108.93824 0 60.16512-48.77312 108.94336-108.93824 108.94336-60.17024 0-108.93824-48.77824-108.93824-108.94336z m108.93824-47.49824a47.49312 47.49312 0 0 0-47.49824 47.49824 47.49824 47.49824 0 1 0 94.99648 0 47.49824 47.49824 0 0 0-47.49824-47.49824z" p-id="1612" fill="currentColor"></path><path d="M892.48768 892.57984c13.24544 28.8512 2.28352 63.28832-25.59488 79.06304l-40.40704 22.86592a61.44 61.44 0 0 1-74.68032-11.02336l-11.08992-11.60704c-3.80928-2.43712-6.2208-3.53792-7.66976-4.0704-1.4592-0.54272-2.83648-0.86016-5.27872-0.8704h-0.01536c-0.19968 0.02048-1.67424 0.1792-4.51072 1.20832-2.74944 0.99328-6.31808 2.6368-10.56768 5.19168-1.00352 0.90624-1.91488 1.69984-2.70848 2.3808l-0.52224 0.45056-0.2048 0.17408a61.44 61.44 0 0 1-82.31424 17.12128l-37.42208-22.86592a61.44 61.44 0 0 1-24.44288-76.61568 31.66208 31.66208 0 0 0 1.30048-5.48864l0.02048-0.13824 0.02048-0.16384c-0.03072-9.54368-3.36896-18.3808-8.84224-24.94976-5.46816-6.56384-12.544-10.2912-19.61984-11.29472a61.44 61.44 0 0 1-52.81792-60.83584v-65.1264a61.44 61.44 0 0 1 52.78208-60.83072c15.07328-2.14528 28.40576-14.18752 28.4928-36.55168a10.66496 10.66496 0 0 0-0.06144-0.65536 31.21664 31.21664 0 0 0-0.64-3.39456c-13.25056-28.8256-2.33472-63.26272 25.52832-79.06816l40.40704-22.92224a61.44 61.44 0 0 1 74.89536 11.1616c0.72192 0.76288 1.24416 1.31072 1.8176 1.88928 0.52736 0.53248 0.9728 0.96256 1.34144 1.30048 1.21856 0.74752 2.41152 1.54112 3.57376 2.37568 6.30784 4.51072 10.28608 6.46656 12.40576 7.28576 0.5632 0.22016 0.9728 0.35328 1.25952 0.4352 1.31072-0.40448 4.81792-1.75616 11.30496-5.9136 4.59776-4.15744 8.6016-7.1424 10.89024-8.85248l0.5888-0.44032a61.45024 61.45024 0 0 1 73.01632-9.23136l40.37632 22.92224a61.43488 61.43488 0 0 1 26.07104 77.7984l-0.06144 0.17408-0.03072 0.1024-0.05632 0.16384a33.6384 33.6384 0 0 0-1.17248 5.00224l-0.02048 0.18432c0.05632 9.51808 3.39968 18.33984 8.86272 24.89856 5.48864 6.5792 12.58496 10.32704 19.6864 11.33568a61.43488 61.43488 0 0 1 52.70016 57.216l3.83488 65.13152a61.43488 61.43488 0 0 1-52.75648 64.45056c-15.0528 2.11968-28.30848 14.02368-28.41088 36.4288 0.01024 0.12288 0.0256 0.3328 0.06144 0.62464 0.09216 0.72704 0.24064 1.62304 0.4352 2.5344l0.05632 0.256 0.09216 0.384 0.09728 0.39936z m-287.72864-68.67456c14.04416 16.85504 22.13376 38.17472 22.99904 60.416 0.05632 1.43872 0.08192 2.87744 0.0768 4.31616 0 10.1888-3.39456 22.89664-6.2976 29.53216l37.41696 22.86592c0.64-1.41312 1.4336-2.67264 2.34496-3.83488 0.32256-0.4096 0.66048-0.80896 1.00864-1.19808 1.65376-1.83808 3.6096-3.48672 5.71904-5.26848a84.224 84.224 0 0 0 6.54336-5.94944 147.47648 147.47648 0 0 1 11.2128-6.84544c14.976-8.23296 29.312-12.44672 41.85088-12.44672 16.13824 0 29.78304 4.36736 44.9024 13.81376a158.0544 158.0544 0 0 1 8.15616 5.4784l15.53408 16.25088 40.40704-22.86592c-1.51552-2.95424-2.93376-7.21408-4.0448-11.88352-1.3824-5.82144-2.28352-12.27776-2.28352-17.64864v-0.86528c0.384-51.45088 34.83136-90.112 81.27488-96.66048l-3.83488-65.1264c-22.58432-3.20512-43.27936-14.8736-58.24512-32.82944s-23.18336-40.97536-23.11168-64.78336v-0.49664c0.07168-6.63552 1.5872-14.31552 3.4304-20.62848 0.9472-3.24096 1.98144-6.12352 2.94912-8.32l-40.37632-22.92224c-0.96256 1.14688-2.26304 2.24768-3.79392 3.4304-0.67584 0.51712-1.39264 1.0496-2.14016 1.6128-2.87744 2.13504-6.27712 4.66432-9.70752 8.20224-2.36544 1.63328-4.68992 3.15904-6.96832 4.58752-15.49312 9.7024-29.07648 14.70464-42.61376 14.70464-13.50144 0-27.04384-4.57728-42.40896-14.37184a167.35232 167.35232 0 0 1-7.25504-4.92032c-5.53984-3.10272-10.99776-8.48896-14.23872-11.86304-0.49664-0.512-0.93696-0.97792-1.32096-1.3824l-40.40704 22.92224c1.48992 2.88768 2.88768 7.04 3.98336 11.61728 1.40288 5.84704 2.31424 12.38528 2.31424 17.82784v0.19456c-0.08704 51.72736-34.68288 90.78272-81.27488 97.41824v65.1264c22.56384 3.2 43.24352 14.85312 58.19904 32.7936z m121.5488-276.74112l0.11776-0.02048-0.06144 0.01024-0.05632 0.01024z m1.0496-0.05632h-0.03072l0.1024 0.01024-0.03072-0.00512-0.04096-0.00512z" p-id="1613" fill="currentColor"></path></svg>