<svg t="1713841329661" class="icon" viewBox="0 0 1029 1024" version="1.1" xmlns="http://www.w3.org/2000/svg" p-id="1198" width="200" height="200"><path d="M23.15776 204.71808c0-45.24032 36.67968-81.92 81.92-81.92h716.8c45.24544 0 81.92 36.67968 81.92 81.92v76.8a30.72 30.72 0 1 1-61.44 0v-76.8a20.48 20.48 0 0 0-20.48-20.48h-716.8a20.48 20.48 0 0 0-20.48 20.48v614.4a20.48 20.48 0 0 0 20.48 20.48h307.2a30.72 30.72 0 0 1 0 61.44h-307.2c-45.24032 0-81.92-36.67456-81.92-81.92v-614.4z" p-id="1199" fill="currentColor"></path><path d="M151.15776 306.9184a30.72 30.72 0 0 1 30.72-30.72h332.8a30.72 30.72 0 1 1 0 61.44h-332.8a30.72 30.72 0 0 1-30.72-30.72zM151.15776 511.7184a30.72 30.72 0 0 1 30.72-30.72h153.6a30.72 30.72 0 0 1 0 61.44h-153.6a30.72 30.72 0 0 1-30.72-30.72z" p-id="1200" fill="currentColor"></path><path d="M770.67776 378.5984c-60.288 0-116.38784 12.15488-158.55104 33.23904-40.33024 20.16256-76.96896 53.70368-76.96896 99.88096v307.28192c0 46.1824 36.63872 79.7184 76.96896 99.88608 42.1632 21.07904 98.26304 33.23392 158.55104 33.23392 60.29312 0 116.39296-12.15488 158.55616-33.23392 40.32512-20.16768 76.96384-53.70368 76.96384-99.88608V511.7184c0-46.1824-36.63872-79.7184-76.96384-99.88096-42.1632-21.08416-98.26304-33.23904-158.55616-33.23904z m-174.08 133.12c0-10.37312 9.21088-28.032 43.00288-44.928 31.95904-15.97952 78.2592-26.752 131.07712-26.752 52.82304 0 99.1232 10.77248 131.07712 26.752 33.79712 16.896 43.00288 34.56 43.00288 44.928 0 10.37312-9.20576 28.03712-43.00288 44.93312-31.95392 15.97952-78.25408 26.74688-131.07712 26.74688-52.81792 0-99.11808-10.76736-131.07712-26.74688-33.792-16.896-43.00288-34.56-43.00288-44.93312z m0 153.68192v-62.37184a211.82464 211.82464 0 0 0 15.52896 8.576c42.1632 21.08416 98.26304 33.23392 158.55104 33.23392 60.29312 0 116.39296-12.14976 158.55616-33.23392a211.72224 211.72224 0 0 0 15.52384-8.576v62.37184c0 10.37312-9.20576 28.032-43.00288 44.93312-31.95392 15.9744-78.25408 26.74688-131.07712 26.74688-52.81792 0-99.11808-10.77248-131.07712-26.74688-33.792-16.90112-43.00288-34.56-43.00288-44.93312z m332.63616 99.88608a213.6576 213.6576 0 0 0 15.52384-8.576v62.28992c0 10.37312-9.20576 28.032-43.00288 44.93312-31.95392 15.9744-78.25408 26.74688-131.07712 26.74688-52.81792 0-99.11808-10.77248-131.07712-26.74688-33.792-16.90112-43.00288-34.56-43.00288-44.93312v-62.28992a213.76 213.76 0 0 0 15.52896 8.576c42.1632 21.07904 98.26304 33.23392 158.55104 33.23392 60.29312 0 116.39296-12.15488 158.55616-33.23392z" p-id="1201" fill="currentColor"></path></svg>