<svg t="1713841480265" class="icon" viewBox="0 0 1024 1024" version="1.1" xmlns="http://www.w3.org/2000/svg" p-id="2026" width="200" height="200"><path d="M153.6 20.48c-45.24544 0-81.92 36.67456-81.92 81.92v793.6c0 45.24544 36.67456 81.92 81.92 81.92h256a30.72 30.72 0 1 0 0-61.44H153.6a20.48 20.48 0 0 1-20.48-20.48V102.4a20.48 20.48 0 0 1 20.48-20.48h665.6a20.48 20.48 0 0 1 20.48 20.48v307.2a30.72 30.72 0 1 0 61.44 0V102.4c0-45.24544-36.67456-81.92-81.92-81.92H153.6z" p-id="2027" fill="currentColor"></path><path d="M606.52032 724.97664a30.72 30.72 0 0 0 0 61.44h221.53728a30.72 30.72 0 1 0 0-61.44h-221.53728zM606.52032 812.11904a30.72 30.72 0 0 0 0 61.44H742.4a30.72 30.72 0 0 0 0-61.44h-135.87968z" p-id="2028" fill="currentColor"></path><path d="M652.01152 512a30.72 30.72 0 1 0-61.44 0v13.58848h-57.89696c-28.38528 0-51.39456 23.00928-51.39456 51.39456v339.70176c0 28.38528 23.00928 51.39968 51.39456 51.39968h403.19488a30.72 30.72 0 0 0 30.72-30.72v-360.38144c0-28.38528-23.00928-51.39456-51.39456-51.39456H858.7776V512a30.72 30.72 0 1 0-61.44 0v13.58848h-145.32608V512zM542.72 587.02848h48.83456a30.73536 30.73536 0 0 0 59.4688 0h147.3024a30.72 30.72 0 0 0 59.46368 0h47.36v43.42272H542.72v-43.42272z m0 104.86272h362.42944v214.75328H542.72v-214.75328z" p-id="2029" fill="currentColor"></path><path d="M225.28 435.2a30.72 30.72 0 0 1 30.72-30.72h256a30.72 30.72 0 1 1 0 61.44H256a30.72 30.72 0 0 1-30.72-30.72zM256 199.68a30.72 30.72 0 0 0 0 61.44h460.8a30.72 30.72 0 1 0 0-61.44H256z" p-id="2030" fill="currentColor"></path></svg>