<svg t="1713841298414" class="icon" viewBox="0 0 1029 1024" version="1.1" xmlns="http://www.w3.org/2000/svg" p-id="990" width="200" height="200"><path d="M276.48 394.8032a30.72 30.72 0 0 0-61.44 0v238.92992a30.72 30.72 0 1 0 61.44 0V394.79808zM424.96 483.2768a30.72 30.72 0 0 1 30.72 30.72512v119.46496a30.72 30.72 0 1 1-61.44 0v-119.46496a30.72 30.72 0 0 1 30.72-30.72zM634.88 275.2a30.72 30.72 0 1 0-61.44 0v358.4a30.72 30.72 0 1 0 61.44 0v-358.4zM783.36 423.68a30.72 30.72 0 0 1 30.72 30.72v179.2a30.72 30.72 0 1 1-61.44 0v-179.2a30.72 30.72 0 0 1 30.72-30.72z" p-id="991" fill="currentColor"></path><path d="M126.29504 65.28C76.3392 65.28 35.84 105.7792 35.84 155.73504v537.6c0 49.95584 40.4992 90.44992 90.45504 90.44992h776.52992c49.95584 0 90.45504-40.49408 90.45504-90.44992v-537.6c0-49.95584-40.4992-90.45504-90.45504-90.45504H126.29504zM97.28 155.73504a29.01504 29.01504 0 0 1 29.01504-29.01504h776.52992A29.01504 29.01504 0 0 1 931.84 155.73504v537.6a29.01504 29.01504 0 0 1-29.01504 29.00992H126.29504A29.01504 29.01504 0 0 1 97.28 693.33504v-537.6z" p-id="992" fill="currentColor"></path><path d="M275.5584 901.4784a30.72 30.72 0 0 0 0 61.44h477.87008a30.72 30.72 0 0 0 0-61.44H275.5584z" p-id="993" fill="currentColor"></path></svg>