<svg t="1713841374935" class="icon" viewBox="0 0 1024 1024" version="1.1" xmlns="http://www.w3.org/2000/svg" p-id="1410" width="200" height="200"><path d="M312.43776 204.71808a30.72 30.72 0 0 0-61.44 0v76.8a30.72 30.72 0 0 0 61.44 0v-76.8zM764.24192 277.64224a30.72 30.72 0 0 0-43.4432-43.4432l-136.64256 136.63744L476.7232 306.3808a30.72 30.72 0 0 0-36.02944 3.2256l-204.8 179.2a30.72 30.72 0 1 0 40.45312 46.23872l187.9552-164.46464 108.81536 65.28512a30.72 30.72 0 0 0 37.52448-4.61824l153.6-153.6zM256.11776 583.59808a30.72 30.72 0 0 0 0 61.44h512.00512a30.72 30.72 0 0 0 0-61.44h-512zM256.11776 737.19808a30.72 30.72 0 0 0 0 61.44h512.00512a30.72 30.72 0 0 0 0-61.44h-512z" p-id="1411" fill="currentColor"></path><path d="M153.92256 20.59776c-45.24544 0-81.92 36.67968-81.92 81.92v768c0 45.24544 36.67456 81.92 81.92 81.92h716.8c45.24032 0 81.92-36.67456 81.92-81.92v-768c0-45.24032-36.67968-81.92-81.92-81.92h-716.8z m-20.48 81.92a20.48 20.48 0 0 1 20.48-20.48h716.8a20.48 20.48 0 0 1 20.47488 20.48v768c0 11.3152-9.1648 20.48-20.47488 20.48h-716.8a20.48 20.48 0 0 1-20.48-20.48v-768z" p-id="1412" fill="currentColor"></path></svg>