<svg t="1713841436258" class="icon" viewBox="0 0 1024 1024" version="1.1" xmlns="http://www.w3.org/2000/svg" p-id="1818" width="200" height="200"><path d="M110.93504 65.28C60.9792 65.28 20.48 105.7792 20.48 155.73504v537.6c0 49.95584 40.4992 90.44992 90.45504 90.44992H512a30.72 30.72 0 1 0 0-61.44H110.93504A29.01504 29.01504 0 0 1 81.92 693.33504v-537.6a29.01504 29.01504 0 0 1 29.01504-29.01504h776.52992A29.01504 29.01504 0 0 1 916.48 155.73504V460.8a30.72 30.72 0 1 0 61.44 0V155.73504c0-49.95584-40.4992-90.45504-90.45504-90.45504H110.93504zM230.4 901.4784a30.72 30.72 0 0 0 0 61.44h268.8a30.72 30.72 0 1 0 0-61.44H230.4z" p-id="1819" fill="currentColor"></path><path d="M806.10304 671.27808c-53.25312 0-96.42496 43.17184-96.42496 96.43008 0 53.25312 43.17184 96.42496 96.42496 96.42496 53.25312 0 96.42496-43.17184 96.42496-96.42496 0-53.25824-43.17184-96.43008-96.42496-96.43008z m-34.98496 96.43008a34.99008 34.99008 0 1 1 69.98016 0 34.99008 34.99008 0 0 1-69.98016 0z" p-id="1820" fill="currentColor"></path><path d="M967.99232 855.936a61.44 61.44 0 0 0 52.7616-64.45056l-3.2256-54.71232a61.43488 61.43488 0 0 0-52.70016-57.216c-3.48672-0.49664-7.27552-2.37568-10.36288-6.08256-2.9696-3.56352-4.96128-8.4736-5.15584-13.94176 0.03584-0.18944 0.08192-0.40448 0.13824-0.64 0.06656-0.27136 0.13312-0.54272 0.2048-0.7936l0.09728-0.33792 0.04096-0.14336a61.44 61.44 0 0 0-26.24512-77.3888l-33.91488-19.25632a61.45536 61.45536 0 0 0-72.5504 8.78592l-0.02048 0.01536-0.00512 0.00512c-1.87904 1.40288-5.25824 3.92192-9.21088 7.44448-1.41824 0.89088-2.59072 1.5616-3.5328 2.0736-1.36704-0.768-3.27168-1.9456-5.76512-3.72736a57.3952 57.3952 0 0 0-2.65216-1.79712l-0.21504-0.21504a84.6592 84.6592 0 0 1-1.37728-1.4336 61.44 61.44 0 0 0-74.89536-11.1616l-33.94048 19.25632c-27.55584 15.63136-38.53312 49.47456-25.96352 78.09536 0.05632 0.27648 0.09728 0.52736 0.12288 0.73728-0.13312 7.40864-2.5344 12.09856-4.864 14.848-2.43712 2.87232-5.90336 4.98688-10.61888 5.6576a61.44 61.44 0 0 0-52.78208 60.83072v54.7072a61.43488 61.43488 0 0 0 52.81792 60.83072c3.46624 0.49664 7.23456 2.36032 10.31168 6.05184 2.97984 3.57888 4.9664 8.51968 5.13024 14.0288l-0.00512 0.03072a22.26688 22.26688 0 0 1-0.3584 1.55648c-0.0512 0.18432-0.09216 0.33792-0.13312 0.4608a61.44 61.44 0 0 0 24.62208 76.19584l31.43168 19.21024a61.45536 61.45536 0 0 0 81.57184-16.08192l1.42336-1.24416a40.5504 40.5504 0 0 1 6.37952-3.08736c0.52736-0.18944 0.92672-0.31232 1.20832-0.38912l0.04608 0.00512h0.01536l0.10752 0.03584 0.03584 0.01536 0.08192 0.0256c0.36352 0.13312 1.47456 0.5888 3.584 1.87904l8.46848 8.8576a61.45024 61.45024 0 0 0 74.68032 11.02848l33.94048-19.21024c27.58144-15.60576 38.59968-49.46944 26.01984-78.12608a15.17056 15.17056 0 0 1-0.14848-0.8448c0.14336-7.4496 2.54976-12.10368 4.83328-14.7968 2.38592-2.81088 5.81632-4.92032 10.56768-5.59104z m-139.2384-220.18048c5.51936-2.59072 11.27424-6.00576 17.40288-10.22464 2.88256-2.9696 5.73952-5.0944 8.15616-6.89152 0.62976-0.47104 1.23392-0.91648 1.79712-1.35168 1.29024-0.99328 2.3808-1.92 3.18976-2.88256l33.91488 19.2512c-0.81408 1.84832-1.67936 4.27008-2.47808 6.99392-1.5872 5.43232-2.88256 12.07296-2.88256 17.7408a86.2976 86.2976 0 0 0 0.74752 11.56608 84.224 84.224 0 0 0 18.66752 42.8544 78.9504 78.9504 0 0 0 32.6912 23.40352 75.91424 75.91424 0 0 0 16.23552 4.1728l3.22048 54.7072a79.71328 79.71328 0 0 0-18.70336 4.97152c-25.56928 10.2656-44.13952 33.39776-48.55808 63.11424a94.82752 94.82752 0 0 0-1.00864 13.83936c0 4.5056 0.75776 9.9328 1.92 14.8224 0.93184 3.92192 2.1248 7.5008 3.39456 9.984l-33.94048 19.20512-13.04576-13.65504c-6.31296-4.51072-12.2112-8.02304-18.05312-10.60864a63.4368 63.4368 0 0 0-26.5216-5.59104c-7.3984 0-15.54432 1.74592-24.09472 5.18144-6.63552 2.66752-13.51168 6.3488-20.47488 11.01824-1.87392 1.94048-3.74784 3.52256-5.49888 5.00224-1.77152 1.49504-3.41504 2.88256-4.80256 4.42368l-0.13312 0.14848-0.07168 0.08704-0.07168 0.0768-0.17408 0.2048a15.1552 15.1552 0 0 0-2.36544 3.712l-31.43168-19.20512c2.43712-5.5808 5.29408-16.25088 5.29408-24.8064a87.4752 87.4752 0 0 0-1.39776-15.70816 83.968 83.968 0 0 0-17.99168-38.67136 78.98112 78.98112 0 0 0-31.51872-22.9376 76.33408 76.33408 0 0 0-17.36704-4.608v-54.7072a81.31584 81.31584 0 0 0 17.5616-4.55168c26.56768-10.24 45.84448-34.26816 49.91488-65.13152 0.52224-3.9936 0.79872-8.10496 0.79872-12.3136 0-4.57216-0.768-10.0608-1.95072-14.976-0.9216-3.84-2.09408-7.33184-3.34336-9.75872l33.94048-19.2512 1.11104 1.16224c2.72384 2.83136 7.30624 7.35744 11.96032 9.96352 6.17472 4.41856 11.97568 7.88992 17.54624 10.46528 8.40704 3.88608 16.29696 5.73952 24.17152 5.73952 7.88992 0 15.7952-2.0224 24.2432-5.98016zM636.16 510.83264c63.14496-36.45952 63.14496-127.60576 0-164.06528L492.16 263.63904c-63.14496-36.45952-142.08 9.1136-142.08 82.02752v166.27712c0 72.91392 78.93504 118.48704 142.08 82.02752l144-83.13344z m-30.72-110.85312c22.18496 12.81024 22.18496 44.83072 0 57.64096l-144 83.13856c-22.18496 12.81024-49.92-3.2-49.92-28.82048V345.66144c0-25.62048 27.73504-41.63072 49.92-28.8256l144 83.14368z" p-id="1821" fill="currentColor"></path></svg>